<mxfile host="app.diagrams.net" agent="Mozilla/5.0 (Macintosh; Intel Mac OS X 10_15_7) AppleWebKit/537.36 (KHTML, like Gecko) Chrome/133.0.0.0 Safari/537.36" version="26.1.0">
  <diagram id="ioWrLQ7y6A22qItG17vz" name="第 1 页">
    <mxGraphModel dx="3187" dy="1744" grid="1" gridSize="10" guides="1" tooltips="1" connect="1" arrows="1" fold="1" page="1" pageScale="1" pageWidth="827" pageHeight="1169" math="1" shadow="0">
      <root>
        <mxCell id="0" />
        <mxCell id="1" parent="0" />
        <mxCell id="vsbCHK0Az_aQSnP-PLgb-73" value="" style="rounded=0;whiteSpace=wrap;html=1;fillColor=none;strokeWidth=2;" vertex="1" parent="1">
          <mxGeometry x="570" y="200" width="550" height="330" as="geometry" />
        </mxCell>
        <mxCell id="vsbCHK0Az_aQSnP-PLgb-69" value="" style="rounded=0;whiteSpace=wrap;html=1;fillColor=none;strokeWidth=2;" vertex="1" parent="1">
          <mxGeometry x="90" y="280" width="460" height="250" as="geometry" />
        </mxCell>
        <mxCell id="vsbCHK0Az_aQSnP-PLgb-3" value="&lt;font style=&quot;font-size: 24px;&quot; face=&quot;宋体&quot;&gt;接收能力槽&lt;/font&gt;" style="text;html=1;align=center;verticalAlign=middle;resizable=0;points=[];autosize=1;strokeColor=none;fillColor=none;" vertex="1" parent="1">
          <mxGeometry x="850" y="280" width="140" height="40" as="geometry" />
        </mxCell>
        <mxCell id="vsbCHK0Az_aQSnP-PLgb-57" value="&lt;font style=&quot;font-size: 24px;&quot; face=&quot;宋体&quot;&gt;任务通信&lt;/font&gt;" style="rounded=0;whiteSpace=wrap;html=1;strokeWidth=2;fillColor=none;" vertex="1" parent="1">
          <mxGeometry x="90" y="550" width="1040" height="60" as="geometry" />
        </mxCell>
        <mxCell id="vsbCHK0Az_aQSnP-PLgb-58" value="" style="endArrow=open;html=1;rounded=0;entryX=1;entryY=0.5;entryDx=0;entryDy=0;edgeStyle=orthogonalEdgeStyle;endSize=7;strokeWidth=2;endFill=0;strokeColor=#666666;" edge="1" parent="1" target="vsbCHK0Az_aQSnP-PLgb-44">
          <mxGeometry width="50" height="50" relative="1" as="geometry">
            <mxPoint x="430" y="550" as="sourcePoint" />
            <mxPoint x="438" y="720" as="targetPoint" />
            <Array as="points">
              <mxPoint x="430" y="550" />
              <mxPoint x="430" y="340" />
            </Array>
          </mxGeometry>
        </mxCell>
        <mxCell id="vsbCHK0Az_aQSnP-PLgb-64" value="" style="rounded=0;whiteSpace=wrap;html=1;fillColor=#f5f5f5;strokeWidth=2;fontColor=#333333;strokeColor=#666666;" vertex="1" parent="1">
          <mxGeometry x="450" y="320" width="90" height="200" as="geometry" />
        </mxCell>
        <mxCell id="vsbCHK0Az_aQSnP-PLgb-2" value="&lt;font style=&quot;font-size: 24px;&quot; face=&quot;宋体&quot;&gt;发送能力槽&lt;/font&gt;" style="text;html=1;align=center;verticalAlign=middle;resizable=0;points=[];autosize=1;strokeColor=none;fillColor=none;" vertex="1" parent="1">
          <mxGeometry x="210" y="280" width="140" height="40" as="geometry" />
        </mxCell>
        <mxCell id="vsbCHK0Az_aQSnP-PLgb-65" value="&lt;font style=&quot;font-size: 24px;&quot; face=&quot;宋体&quot;&gt;接收能力槽&lt;/font&gt;" style="text;html=1;align=center;verticalAlign=middle;resizable=0;points=[];autosize=1;strokeColor=none;fillColor=none;" vertex="1" parent="1">
          <mxGeometry x="415" y="280" width="140" height="40" as="geometry" />
        </mxCell>
        <mxCell id="vsbCHK0Az_aQSnP-PLgb-68" value="&lt;font style=&quot;font-size: 24px;&quot; face=&quot;宋体&quot;&gt;发送能力槽&lt;/font&gt;" style="text;html=1;align=center;verticalAlign=middle;resizable=0;points=[];autosize=1;strokeColor=none;fillColor=none;" vertex="1" parent="1">
          <mxGeometry x="580" y="280" width="140" height="40" as="geometry" />
        </mxCell>
        <mxCell id="vsbCHK0Az_aQSnP-PLgb-70" value="&lt;font style=&quot;font-size: 24px;&quot; face=&quot;宋体&quot;&gt;发送方（\(os_{1}, proc_{2}\)）&lt;/font&gt;" style="text;html=1;align=center;verticalAlign=middle;resizable=0;points=[];autosize=1;strokeColor=none;fillColor=none;" vertex="1" parent="1">
          <mxGeometry x="90" y="240" width="380" height="40" as="geometry" />
        </mxCell>
        <mxCell id="vsbCHK0Az_aQSnP-PLgb-24" value="" style="group;strokeColor=default;strokeWidth=2;container=0;" vertex="1" connectable="0" parent="1">
          <mxGeometry x="100" y="320" width="310" height="200" as="geometry" />
        </mxCell>
        <mxCell id="vsbCHK0Az_aQSnP-PLgb-44" value="&lt;font face=&quot;Times New Roman&quot; style=&quot;font-size: 24px;&quot;&gt;\(irq_{0}\)&lt;/font&gt;" style="rounded=0;whiteSpace=wrap;html=1;strokeWidth=2;fillColor=none;container=0;" vertex="1" parent="1">
          <mxGeometry x="340" y="320" width="70" height="40" as="geometry" />
        </mxCell>
        <mxCell id="vsbCHK0Az_aQSnP-PLgb-6" value="" style="group" vertex="1" connectable="0" parent="1">
          <mxGeometry x="100" y="320" width="240" height="40" as="geometry" />
        </mxCell>
        <mxCell id="vsbCHK0Az_aQSnP-PLgb-4" value="&lt;font face=&quot;Times New Roman&quot; style=&quot;font-size: 24px;&quot;&gt;\(recv\_os_{2}\)&lt;/font&gt;" style="rounded=0;whiteSpace=wrap;html=1;strokeWidth=2;fillColor=none;" vertex="1" parent="vsbCHK0Az_aQSnP-PLgb-6">
          <mxGeometry width="110" height="40" as="geometry" />
        </mxCell>
        <mxCell id="vsbCHK0Az_aQSnP-PLgb-5" value="&lt;font face=&quot;Times New Roman&quot; style=&quot;font-size: 24px;&quot;&gt;\(recv\_proc_{5}\)&lt;/font&gt;" style="rounded=0;whiteSpace=wrap;html=1;strokeWidth=2;fillColor=none;" vertex="1" parent="vsbCHK0Az_aQSnP-PLgb-6">
          <mxGeometry x="110" width="130" height="40" as="geometry" />
        </mxCell>
        <mxCell id="vsbCHK0Az_aQSnP-PLgb-7" value="" style="group" vertex="1" connectable="0" parent="1">
          <mxGeometry x="100" y="360" width="240" height="40" as="geometry" />
        </mxCell>
        <mxCell id="vsbCHK0Az_aQSnP-PLgb-8" value="&lt;font face=&quot;Times New Roman&quot; style=&quot;font-size: 24px;&quot;&gt;\(recv\_os_{0}\)&lt;/font&gt;" style="rounded=0;whiteSpace=wrap;html=1;strokeWidth=2;fillColor=none;" vertex="1" parent="vsbCHK0Az_aQSnP-PLgb-7">
          <mxGeometry width="110" height="40" as="geometry" />
        </mxCell>
        <mxCell id="vsbCHK0Az_aQSnP-PLgb-9" value="&lt;font face=&quot;Times New Roman&quot; style=&quot;font-size: 24px;&quot;&gt;\(recv\_proc_{1}\)&lt;/font&gt;" style="rounded=0;whiteSpace=wrap;html=1;strokeWidth=2;fillColor=none;" vertex="1" parent="vsbCHK0Az_aQSnP-PLgb-7">
          <mxGeometry x="110" width="130" height="40" as="geometry" />
        </mxCell>
        <mxCell id="vsbCHK0Az_aQSnP-PLgb-10" value="" style="group" vertex="1" connectable="0" parent="1">
          <mxGeometry x="100" y="480" width="240" height="40" as="geometry" />
        </mxCell>
        <mxCell id="vsbCHK0Az_aQSnP-PLgb-11" value="&lt;font face=&quot;Times New Roman&quot; style=&quot;font-size: 24px;&quot;&gt;\(recv\_os_{0}\)&lt;/font&gt;" style="rounded=0;whiteSpace=wrap;html=1;strokeWidth=2;fillColor=none;" vertex="1" parent="vsbCHK0Az_aQSnP-PLgb-10">
          <mxGeometry width="110" height="40" as="geometry" />
        </mxCell>
        <mxCell id="vsbCHK0Az_aQSnP-PLgb-12" value="&lt;font face=&quot;Times New Roman&quot; style=&quot;font-size: 24px;&quot;&gt;\(recv\_proc_{n}\)&lt;/font&gt;" style="rounded=0;whiteSpace=wrap;html=1;strokeWidth=2;fillColor=none;" vertex="1" parent="vsbCHK0Az_aQSnP-PLgb-10">
          <mxGeometry x="110" width="130" height="40" as="geometry" />
        </mxCell>
        <mxCell id="vsbCHK0Az_aQSnP-PLgb-45" value="&lt;font face=&quot;Times New Roman&quot; style=&quot;font-size: 24px;&quot;&gt;\(irq_{2}\)&lt;/font&gt;" style="rounded=0;whiteSpace=wrap;html=1;strokeWidth=2;fillColor=none;container=0;" vertex="1" parent="1">
          <mxGeometry x="340" y="360" width="70" height="40" as="geometry" />
        </mxCell>
        <mxCell id="vsbCHK0Az_aQSnP-PLgb-46" value="&lt;font face=&quot;Times New Roman&quot; style=&quot;font-size: 24px;&quot;&gt;\(irq_{4}\)&lt;/font&gt;" style="rounded=0;whiteSpace=wrap;html=1;strokeWidth=2;fillColor=none;container=0;" vertex="1" parent="1">
          <mxGeometry x="340" y="480" width="70" height="40" as="geometry" />
        </mxCell>
        <mxCell id="vsbCHK0Az_aQSnP-PLgb-66" value="" style="endArrow=none;dashed=1;html=1;dashPattern=1 3;strokeWidth=4;rounded=0;" edge="1" parent="1">
          <mxGeometry width="50" height="50" relative="1" as="geometry">
            <mxPoint x="249.4999999999999" y="457" as="sourcePoint" />
            <mxPoint x="249.4999999999999" y="417" as="targetPoint" />
          </mxGeometry>
        </mxCell>
        <mxCell id="vsbCHK0Az_aQSnP-PLgb-50" value="" style="group;strokeColor=default;strokeWidth=2;container=0;" vertex="1" connectable="0" parent="1">
          <mxGeometry x="720" y="320" width="380" height="200" as="geometry" />
        </mxCell>
        <mxCell id="vsbCHK0Az_aQSnP-PLgb-27" value="&lt;font face=&quot;Times New Roman&quot; style=&quot;font-size: 24px;&quot;&gt;\(send\_os_{0}\)&lt;/font&gt;" style="rounded=0;whiteSpace=wrap;html=1;strokeWidth=2;fillColor=none;container=0;" vertex="1" parent="1">
          <mxGeometry x="720" y="320" width="110" height="40" as="geometry" />
        </mxCell>
        <mxCell id="vsbCHK0Az_aQSnP-PLgb-28" value="&lt;font face=&quot;Times New Roman&quot; style=&quot;font-size: 24px;&quot;&gt;\(send\_proc_{0}\)&lt;/font&gt;" style="rounded=0;whiteSpace=wrap;html=1;strokeWidth=2;fillColor=none;container=0;" vertex="1" parent="1">
          <mxGeometry x="830" y="320" width="130" height="40" as="geometry" />
        </mxCell>
        <mxCell id="vsbCHK0Az_aQSnP-PLgb-30" value="&lt;font face=&quot;Times New Roman&quot; style=&quot;font-size: 24px;&quot;&gt;\(send\_os_{1}\)&lt;/font&gt;" style="rounded=0;whiteSpace=wrap;html=1;strokeWidth=2;fillColor=none;container=0;" vertex="1" parent="1">
          <mxGeometry x="720" y="360" width="110" height="40" as="geometry" />
        </mxCell>
        <mxCell id="vsbCHK0Az_aQSnP-PLgb-31" value="&lt;font face=&quot;Times New Roman&quot; style=&quot;font-size: 24px;&quot;&gt;\(send\_proc_{2}\)&lt;/font&gt;" style="rounded=0;whiteSpace=wrap;html=1;strokeWidth=2;fillColor=none;container=0;" vertex="1" parent="1">
          <mxGeometry x="830" y="360" width="130" height="40" as="geometry" />
        </mxCell>
        <mxCell id="vsbCHK0Az_aQSnP-PLgb-33" value="&lt;font face=&quot;Times New Roman&quot; style=&quot;font-size: 24px;&quot;&gt;\(send\_os_{0}\)&lt;/font&gt;" style="rounded=0;whiteSpace=wrap;html=1;strokeWidth=2;fillColor=none;container=0;" vertex="1" parent="1">
          <mxGeometry x="720" y="480" width="110" height="40" as="geometry" />
        </mxCell>
        <mxCell id="vsbCHK0Az_aQSnP-PLgb-34" value="&lt;font face=&quot;Times New Roman&quot; style=&quot;font-size: 24px;&quot;&gt;\(send\_proc_{n}\)&lt;/font&gt;" style="rounded=0;whiteSpace=wrap;html=1;strokeWidth=2;fillColor=none;container=0;" vertex="1" parent="1">
          <mxGeometry x="830" y="480" width="130" height="40" as="geometry" />
        </mxCell>
        <mxCell id="vsbCHK0Az_aQSnP-PLgb-41" value="" style="endArrow=none;dashed=1;html=1;dashPattern=1 3;strokeWidth=4;rounded=0;" edge="1" parent="1">
          <mxGeometry width="50" height="50" relative="1" as="geometry">
            <mxPoint x="919.9999999999998" y="458" as="sourcePoint" />
            <mxPoint x="919.9999999999998" y="418" as="targetPoint" />
          </mxGeometry>
        </mxCell>
        <mxCell id="vsbCHK0Az_aQSnP-PLgb-43" value="&lt;font face=&quot;Times New Roman&quot; style=&quot;font-size: 24px;&quot;&gt;\(irq_{0}\)&lt;/font&gt;" style="rounded=0;whiteSpace=wrap;html=1;strokeWidth=2;fillColor=none;container=0;" vertex="1" parent="1">
          <mxGeometry x="960" y="320" width="70" height="40" as="geometry" />
        </mxCell>
        <mxCell id="vsbCHK0Az_aQSnP-PLgb-48" value="&lt;font face=&quot;Times New Roman&quot; style=&quot;font-size: 24px;&quot;&gt;\(irq_{0}\)&lt;/font&gt;" style="rounded=0;whiteSpace=wrap;html=1;strokeWidth=2;fillColor=none;container=0;" vertex="1" parent="1">
          <mxGeometry x="960" y="360" width="70" height="40" as="geometry" />
        </mxCell>
        <mxCell id="vsbCHK0Az_aQSnP-PLgb-49" value="&lt;font face=&quot;Times New Roman&quot; style=&quot;font-size: 24px;&quot;&gt;\(irq_{2}\)&lt;/font&gt;" style="rounded=0;whiteSpace=wrap;html=1;strokeWidth=2;fillColor=none;container=0;" vertex="1" parent="1">
          <mxGeometry x="960" y="480" width="70" height="40" as="geometry" />
        </mxCell>
        <mxCell id="vsbCHK0Az_aQSnP-PLgb-53" value="&lt;font face=&quot;Times New Roman&quot; style=&quot;font-size: 24px;&quot;&gt;\(isr0\)&lt;/font&gt;" style="rounded=0;whiteSpace=wrap;html=1;strokeWidth=2;fillColor=none;container=0;" vertex="1" parent="1">
          <mxGeometry x="1030" y="320" width="70" height="40" as="geometry" />
        </mxCell>
        <mxCell id="vsbCHK0Az_aQSnP-PLgb-76" style="edgeStyle=orthogonalEdgeStyle;rounded=0;orthogonalLoop=1;jettySize=auto;html=1;entryX=0.849;entryY=1.004;entryDx=0;entryDy=0;exitX=1;exitY=0.5;exitDx=0;exitDy=0;strokeWidth=2;entryPerimeter=0;" edge="1" parent="1" source="vsbCHK0Az_aQSnP-PLgb-54" target="vsbCHK0Az_aQSnP-PLgb-74">
          <mxGeometry relative="1" as="geometry">
            <Array as="points">
              <mxPoint x="1110" y="380" />
              <mxPoint x="1110" y="305" />
              <mxPoint x="1023" y="305" />
            </Array>
          </mxGeometry>
        </mxCell>
        <mxCell id="vsbCHK0Az_aQSnP-PLgb-54" value="&lt;font face=&quot;Times New Roman&quot; style=&quot;font-size: 24px;&quot;&gt;\(isr1\)&lt;/font&gt;" style="rounded=0;whiteSpace=wrap;html=1;strokeWidth=2;fillColor=none;container=0;" vertex="1" parent="1">
          <mxGeometry x="1030" y="360" width="70" height="40" as="geometry" />
        </mxCell>
        <mxCell id="vsbCHK0Az_aQSnP-PLgb-55" value="&lt;font face=&quot;Times New Roman&quot; style=&quot;font-size: 24px;&quot;&gt;\(isr2\)&lt;/font&gt;" style="rounded=0;whiteSpace=wrap;html=1;strokeWidth=2;fillColor=none;container=0;" vertex="1" parent="1">
          <mxGeometry x="1030" y="480" width="70" height="40" as="geometry" />
        </mxCell>
        <mxCell id="vsbCHK0Az_aQSnP-PLgb-72" value="" style="rounded=0;whiteSpace=wrap;html=1;fillColor=#f5f5f5;strokeWidth=2;fontColor=#333333;strokeColor=#666666;" vertex="1" parent="1">
          <mxGeometry x="590" y="320" width="90" height="200" as="geometry" />
        </mxCell>
        <mxCell id="vsbCHK0Az_aQSnP-PLgb-74" value="&lt;font style=&quot;font-size: 24px;&quot; face=&quot;宋体&quot;&gt;就绪队列&lt;/font&gt;" style="rounded=0;whiteSpace=wrap;html=1;strokeWidth=2;fillColor=none;" vertex="1" parent="1">
          <mxGeometry x="590" y="210" width="510" height="60" as="geometry" />
        </mxCell>
        <mxCell id="vsbCHK0Az_aQSnP-PLgb-75" value="" style="endArrow=open;html=1;rounded=0;entryX=0;entryY=0.5;entryDx=0;entryDy=0;edgeStyle=orthogonalEdgeStyle;endSize=7;strokeWidth=2;endFill=0;strokeColor=#666666;exitX=0.587;exitY=0.006;exitDx=0;exitDy=0;exitPerimeter=0;" edge="1" parent="1" source="vsbCHK0Az_aQSnP-PLgb-57" target="vsbCHK0Az_aQSnP-PLgb-30">
          <mxGeometry width="50" height="50" relative="1" as="geometry">
            <mxPoint x="440" y="560" as="sourcePoint" />
            <mxPoint x="420" y="350" as="targetPoint" />
            <Array as="points">
              <mxPoint x="701" y="380" />
            </Array>
          </mxGeometry>
        </mxCell>
        <mxCell id="vsbCHK0Az_aQSnP-PLgb-77" value="&lt;font style=&quot;font-size: 24px;&quot; face=&quot;宋体&quot;&gt;\(isr_{1}\)&lt;/font&gt;" style="rounded=0;whiteSpace=wrap;html=1;strokeWidth=2;fillColor=none;" vertex="1" parent="1">
          <mxGeometry x="980" y="210" width="90" height="60" as="geometry" />
        </mxCell>
        <mxCell id="vsbCHK0Az_aQSnP-PLgb-78" value="&lt;font style=&quot;font-size: 24px;&quot; face=&quot;宋体&quot;&gt;接收方（\(os_{2}, proc_{5}\)）&lt;/font&gt;" style="text;html=1;align=center;verticalAlign=middle;resizable=0;points=[];autosize=1;strokeColor=none;fillColor=none;" vertex="1" parent="1">
          <mxGeometry x="655" y="160" width="380" height="40" as="geometry" />
        </mxCell>
      </root>
    </mxGraphModel>
  </diagram>
</mxfile>
